<?xml version="1.0" encoding="UTF-8" standalone="no"?>
<!DOCTYPE svg PUBLIC "-//W3C//DTD SVG 1.1//EN"
 "http://www.w3.org/Graphics/SVG/1.1/DTD/svg11.dtd">
<!-- Generated by graphviz version 2.26.3 (20100126.1600)
 -->
<!-- Title: models_diagram Pages: 1 -->
<svg width="3224pt" height="800pt"
 viewBox="0.00 0.00 3224.00 800.00" xmlns="http://www.w3.org/2000/svg" xmlns:xlink="http://www.w3.org/1999/xlink">
<g id="graph1" class="graph" transform="scale(1 1) rotate(0) translate(4 796)">
<title>models_diagram</title>
<polygon fill="white" stroke="white" points="-4,5 -4,-796 3221,-796 3221,5 -4,5"/>
<!-- _diagram_info -->
<g id="node1" class="node"><title>_diagram_info</title>
<text text-anchor="start" x="8" y="-723.8" font-family="Times Roman,serif" font-size="13.00">Models diagram</text>
<text text-anchor="start" x="8" y="-706.8" font-family="Times Roman,serif" font-size="13.00">Date: Jul 11 2012 &#45; 14:00</text>
<text text-anchor="start" x="8" y="-689.8" font-family="Times Roman,serif" font-size="13.00">Migration version: 20120709182642</text>
<text text-anchor="start" x="8" y="-672.8" font-family="Times Roman,serif" font-size="13.00">Generated by RailRoady 1.0.7</text>
<text text-anchor="start" x="8" y="-655.8" font-family="Times Roman,serif" font-size="13.00">http://railroady.prestonlee.com</text>
</g>
<!-- ProfessionalActivity -->
<g id="node2" class="node"><title>ProfessionalActivity</title>
<polyline fill="none" stroke="black" points="279.5,-649 420.5,-649 "/>
<path fill="none" stroke="black" d="M420.5,-649C426.5,-649 432.5,-655 432.5,-661"/>
<polyline fill="none" stroke="black" points="432.5,-661 432.5,-725 "/>
<path fill="none" stroke="black" d="M432.5,-725C432.5,-731 426.5,-737 420.5,-737"/>
<polyline fill="none" stroke="black" points="420.5,-737 279.5,-737 "/>
<path fill="none" stroke="black" d="M279.5,-737C273.5,-737 267.5,-731 267.5,-725"/>
<polyline fill="none" stroke="black" points="267.5,-725 267.5,-661 "/>
<path fill="none" stroke="black" d="M267.5,-661C267.5,-655 273.5,-649 279.5,-649"/>
<text text-anchor="middle" x="350" y="-720.4" font-family="Times Roman,serif" font-size="14.00">ProfessionalActivity</text>
<polyline fill="none" stroke="black" points="267.5,-711 432.5,-711 "/>
<text text-anchor="start" x="275.5" y="-694.4" font-family="Times Roman,serif" font-size="14.00">name :string</text>
<text text-anchor="start" x="275.5" y="-676.4" font-family="Times Roman,serif" font-size="14.00">created_at :datetime</text>
<text text-anchor="start" x="275.5" y="-658.4" font-family="Times Roman,serif" font-size="14.00">updated_at :datetime</text>
</g>
<!-- BusinessUnit -->
<g id="node13" class="node"><title>BusinessUnit</title>
<polyline fill="none" stroke="black" points="455.5,-379 608.5,-379 "/>
<path fill="none" stroke="black" d="M608.5,-379C614.5,-379 620.5,-385 620.5,-391"/>
<polyline fill="none" stroke="black" points="620.5,-391 620.5,-545 "/>
<path fill="none" stroke="black" d="M620.5,-545C620.5,-551 614.5,-557 608.5,-557"/>
<polyline fill="none" stroke="black" points="608.5,-557 455.5,-557 "/>
<path fill="none" stroke="black" d="M455.5,-557C449.5,-557 443.5,-551 443.5,-545"/>
<polyline fill="none" stroke="black" points="443.5,-545 443.5,-391 "/>
<path fill="none" stroke="black" d="M443.5,-391C443.5,-385 449.5,-379 455.5,-379"/>
<text text-anchor="middle" x="532" y="-540.4" font-family="Times Roman,serif" font-size="14.00">BusinessUnit</text>
<polyline fill="none" stroke="black" points="443.5,-531 620.5,-531 "/>
<text text-anchor="start" x="451.5" y="-514.4" font-family="Times Roman,serif" font-size="14.00">name :string</text>
<text text-anchor="start" x="451.5" y="-496.4" font-family="Times Roman,serif" font-size="14.00">corporate_name :string</text>
<text text-anchor="start" x="451.5" y="-478.4" font-family="Times Roman,serif" font-size="14.00">description :text</text>
<text text-anchor="start" x="451.5" y="-460.4" font-family="Times Roman,serif" font-size="14.00">cpf :string</text>
<text text-anchor="start" x="451.5" y="-442.4" font-family="Times Roman,serif" font-size="14.00">cnpj :string</text>
<text text-anchor="start" x="451.5" y="-424.4" font-family="Times Roman,serif" font-size="14.00">owner :integer</text>
<text text-anchor="start" x="451.5" y="-406.4" font-family="Times Roman,serif" font-size="14.00">created_at :datetime</text>
<text text-anchor="start" x="451.5" y="-388.4" font-family="Times Roman,serif" font-size="14.00">updated_at :datetime</text>
</g>
<!-- ProfessionalActivity&#45;&gt;BusinessUnit -->
<g id="edge2" class="edge"><title>ProfessionalActivity&#45;&gt;BusinessUnit</title>
<path fill="none" stroke="#abdde1" d="M392.102,-640.951C410.327,-618.42 432.273,-591.289 453.323,-565.266"/>
<polygon fill="#abdde1" stroke="#abdde1" points="392.029,-641.041 382.241,-645.986 388.885,-644.928 385.74,-648.816 385.74,-648.816 385.74,-648.816 388.885,-644.928 389.239,-651.646 392.029,-641.041 392.029,-641.041"/>
<polygon fill="#abdde1" stroke="#abdde1" points="453.533,-565.006 463.32,-560.062 456.677,-561.119 459.822,-557.231 459.822,-557.231 459.822,-557.231 456.677,-561.119 456.323,-554.401 453.533,-565.006 453.533,-565.006"/>
</g>
<!-- Phone -->
<g id="node3" class="node"><title>Phone</title>
<polyline fill="none" stroke="black" points="825.5,-631 966.5,-631 "/>
<path fill="none" stroke="black" d="M966.5,-631C972.5,-631 978.5,-637 978.5,-643"/>
<polyline fill="none" stroke="black" points="978.5,-643 978.5,-743 "/>
<path fill="none" stroke="black" d="M978.5,-743C978.5,-749 972.5,-755 966.5,-755"/>
<polyline fill="none" stroke="black" points="966.5,-755 825.5,-755 "/>
<path fill="none" stroke="black" d="M825.5,-755C819.5,-755 813.5,-749 813.5,-743"/>
<polyline fill="none" stroke="black" points="813.5,-743 813.5,-643 "/>
<path fill="none" stroke="black" d="M813.5,-643C813.5,-637 819.5,-631 825.5,-631"/>
<text text-anchor="middle" x="896" y="-738.4" font-family="Times Roman,serif" font-size="14.00">Phone</text>
<polyline fill="none" stroke="black" points="813.5,-729 978.5,-729 "/>
<text text-anchor="start" x="821.5" y="-712.4" font-family="Times Roman,serif" font-size="14.00">number :string</text>
<text text-anchor="start" x="821.5" y="-694.4" font-family="Times Roman,serif" font-size="14.00">area_code :string</text>
<text text-anchor="start" x="821.5" y="-676.4" font-family="Times Roman,serif" font-size="14.00">extension :string</text>
<text text-anchor="start" x="821.5" y="-658.4" font-family="Times Roman,serif" font-size="14.00">created_at :datetime</text>
<text text-anchor="start" x="821.5" y="-640.4" font-family="Times Roman,serif" font-size="14.00">updated_at :datetime</text>
</g>
<!-- District -->
<g id="node4" class="node"><title>District</title>
<polyline fill="none" stroke="black" points="914.5,-226 1055.5,-226 "/>
<path fill="none" stroke="black" d="M1055.5,-226C1061.5,-226 1067.5,-232 1067.5,-238"/>
<polyline fill="none" stroke="black" points="1067.5,-238 1067.5,-302 "/>
<path fill="none" stroke="black" d="M1067.5,-302C1067.5,-308 1061.5,-314 1055.5,-314"/>
<polyline fill="none" stroke="black" points="1055.5,-314 914.5,-314 "/>
<path fill="none" stroke="black" d="M914.5,-314C908.5,-314 902.5,-308 902.5,-302"/>
<polyline fill="none" stroke="black" points="902.5,-302 902.5,-238 "/>
<path fill="none" stroke="black" d="M902.5,-238C902.5,-232 908.5,-226 914.5,-226"/>
<text text-anchor="middle" x="985" y="-297.4" font-family="Times Roman,serif" font-size="14.00">District</text>
<polyline fill="none" stroke="black" points="902.5,-288 1067.5,-288 "/>
<text text-anchor="start" x="910.5" y="-271.4" font-family="Times Roman,serif" font-size="14.00">name :string</text>
<text text-anchor="start" x="910.5" y="-253.4" font-family="Times Roman,serif" font-size="14.00">created_at :datetime</text>
<text text-anchor="start" x="910.5" y="-235.4" font-family="Times Roman,serif" font-size="14.00">updated_at :datetime</text>
</g>
<!-- Address -->
<g id="node20" class="node"><title>Address</title>
<polyline fill="none" stroke="black" points="1010.5,-1 1179.5,-1 "/>
<path fill="none" stroke="black" d="M1179.5,-1C1185.5,-1 1191.5,-7 1191.5,-13"/>
<polyline fill="none" stroke="black" points="1191.5,-13 1191.5,-149 "/>
<path fill="none" stroke="black" d="M1191.5,-149C1191.5,-155 1185.5,-161 1179.5,-161"/>
<polyline fill="none" stroke="black" points="1179.5,-161 1010.5,-161 "/>
<path fill="none" stroke="black" d="M1010.5,-161C1004.5,-161 998.5,-155 998.5,-149"/>
<polyline fill="none" stroke="black" points="998.5,-149 998.5,-13 "/>
<path fill="none" stroke="black" d="M998.5,-13C998.5,-7 1004.5,-1 1010.5,-1"/>
<text text-anchor="middle" x="1095" y="-144.4" font-family="Times Roman,serif" font-size="14.00">Address</text>
<polyline fill="none" stroke="black" points="998.5,-135 1191.5,-135 "/>
<text text-anchor="start" x="1006.5" y="-118.4" font-family="Times Roman,serif" font-size="14.00">street_name :string</text>
<text text-anchor="start" x="1006.5" y="-100.4" font-family="Times Roman,serif" font-size="14.00">string :string</text>
<text text-anchor="start" x="1006.5" y="-82.4" font-family="Times Roman,serif" font-size="14.00">house_number :integer</text>
<text text-anchor="start" x="1006.5" y="-64.4" font-family="Times Roman,serif" font-size="14.00">zip_code :string</text>
<text text-anchor="start" x="1006.5" y="-46.4" font-family="Times Roman,serif" font-size="14.00">additional_address :string</text>
<text text-anchor="start" x="1006.5" y="-28.4" font-family="Times Roman,serif" font-size="14.00">created_at :datetime</text>
<text text-anchor="start" x="1006.5" y="-10.4" font-family="Times Roman,serif" font-size="14.00">updated_at :datetime</text>
</g>
<!-- District&#45;&gt;Address -->
<g id="edge4" class="edge"><title>District&#45;&gt;Address</title>
<path fill="none" stroke="#315d42" d="M1015.08,-218.314C1023.72,-203.475 1033.39,-186.85 1042.95,-170.43"/>
<ellipse fill="none" stroke="#315d42" cx="1012.8" cy="-222.231" rx="4.00002" ry="4.00002"/>
<polygon fill="#315d42" stroke="#315d42" points="1043.21,-169.984 1052.13,-163.605 1045.73,-165.663 1048.24,-161.341 1048.24,-161.341 1048.24,-161.341 1045.73,-165.663 1044.35,-159.078 1043.21,-169.984 1043.21,-169.984"/>
</g>
<!-- ServiceAvailable -->
<g id="node5" class="node"><title>ServiceAvailable</title>
<polyline fill="none" stroke="black" points="1189.5,-649 1330.5,-649 "/>
<path fill="none" stroke="black" d="M1330.5,-649C1336.5,-649 1342.5,-655 1342.5,-661"/>
<polyline fill="none" stroke="black" points="1342.5,-661 1342.5,-725 "/>
<path fill="none" stroke="black" d="M1342.5,-725C1342.5,-731 1336.5,-737 1330.5,-737"/>
<polyline fill="none" stroke="black" points="1330.5,-737 1189.5,-737 "/>
<path fill="none" stroke="black" d="M1189.5,-737C1183.5,-737 1177.5,-731 1177.5,-725"/>
<polyline fill="none" stroke="black" points="1177.5,-725 1177.5,-661 "/>
<path fill="none" stroke="black" d="M1177.5,-661C1177.5,-655 1183.5,-649 1189.5,-649"/>
<text text-anchor="middle" x="1260" y="-720.4" font-family="Times Roman,serif" font-size="14.00">ServiceAvailable</text>
<polyline fill="none" stroke="black" points="1177.5,-711 1342.5,-711 "/>
<text text-anchor="start" x="1185.5" y="-694.4" font-family="Times Roman,serif" font-size="14.00">description :string</text>
<text text-anchor="start" x="1185.5" y="-676.4" font-family="Times Roman,serif" font-size="14.00">created_at :datetime</text>
<text text-anchor="start" x="1185.5" y="-658.4" font-family="Times Roman,serif" font-size="14.00">updated_at :datetime</text>
</g>
<!-- BusinessGroup -->
<g id="node6" class="node"><title>BusinessGroup</title>
<polyline fill="none" stroke="black" points="461.5,-613 602.5,-613 "/>
<path fill="none" stroke="black" d="M602.5,-613C608.5,-613 614.5,-619 614.5,-625"/>
<polyline fill="none" stroke="black" points="614.5,-625 614.5,-761 "/>
<path fill="none" stroke="black" d="M614.5,-761C614.5,-767 608.5,-773 602.5,-773"/>
<polyline fill="none" stroke="black" points="602.5,-773 461.5,-773 "/>
<path fill="none" stroke="black" d="M461.5,-773C455.5,-773 449.5,-767 449.5,-761"/>
<polyline fill="none" stroke="black" points="449.5,-761 449.5,-625 "/>
<path fill="none" stroke="black" d="M449.5,-625C449.5,-619 455.5,-613 461.5,-613"/>
<text text-anchor="middle" x="532" y="-756.4" font-family="Times Roman,serif" font-size="14.00">BusinessGroup</text>
<polyline fill="none" stroke="black" points="449.5,-747 614.5,-747 "/>
<text text-anchor="start" x="457.5" y="-730.4" font-family="Times Roman,serif" font-size="14.00">name :string</text>
<text text-anchor="start" x="457.5" y="-712.4" font-family="Times Roman,serif" font-size="14.00">description :text</text>
<text text-anchor="start" x="457.5" y="-694.4" font-family="Times Roman,serif" font-size="14.00">logo :string</text>
<text text-anchor="start" x="457.5" y="-676.4" font-family="Times Roman,serif" font-size="14.00">web :string</text>
<text text-anchor="start" x="457.5" y="-658.4" font-family="Times Roman,serif" font-size="14.00">owner :integer</text>
<text text-anchor="start" x="457.5" y="-640.4" font-family="Times Roman,serif" font-size="14.00">created_at :datetime</text>
<text text-anchor="start" x="457.5" y="-622.4" font-family="Times Roman,serif" font-size="14.00">updated_at :datetime</text>
</g>
<!-- BusinessGroup&#45;&gt;BusinessUnit -->
<g id="edge6" class="edge"><title>BusinessGroup&#45;&gt;BusinessUnit</title>
<path fill="none" stroke="#e7e9c1" d="M532,-604.613C532,-592.398 532,-579.786 532,-567.389"/>
<ellipse fill="none" stroke="#e7e9c1" cx="532" cy="-608.723" rx="4" ry="4"/>
<polygon fill="#e7e9c1" stroke="#e7e9c1" points="532,-567.039 536.5,-557.039 532,-562.039 532,-557.039 532,-557.039 532,-557.039 532,-562.039 527.5,-557.039 532,-567.039 532,-567.039"/>
</g>
<!-- TypeContact -->
<g id="node7" class="node"><title>TypeContact</title>
<polyline fill="none" stroke="black" points="1371.5,-640 1512.5,-640 "/>
<path fill="none" stroke="black" d="M1512.5,-640C1518.5,-640 1524.5,-646 1524.5,-652"/>
<polyline fill="none" stroke="black" points="1524.5,-652 1524.5,-734 "/>
<path fill="none" stroke="black" d="M1524.5,-734C1524.5,-740 1518.5,-746 1512.5,-746"/>
<polyline fill="none" stroke="black" points="1512.5,-746 1371.5,-746 "/>
<path fill="none" stroke="black" d="M1371.5,-746C1365.5,-746 1359.5,-740 1359.5,-734"/>
<polyline fill="none" stroke="black" points="1359.5,-734 1359.5,-652 "/>
<path fill="none" stroke="black" d="M1359.5,-652C1359.5,-646 1365.5,-640 1371.5,-640"/>
<text text-anchor="middle" x="1442" y="-729.4" font-family="Times Roman,serif" font-size="14.00">TypeContact</text>
<polyline fill="none" stroke="black" points="1359.5,-720 1524.5,-720 "/>
<text text-anchor="start" x="1367.5" y="-703.4" font-family="Times Roman,serif" font-size="14.00">description :string</text>
<text text-anchor="start" x="1367.5" y="-685.4" font-family="Times Roman,serif" font-size="14.00">is_system :boolean</text>
<text text-anchor="start" x="1367.5" y="-667.4" font-family="Times Roman,serif" font-size="14.00">created_at :datetime</text>
<text text-anchor="start" x="1367.5" y="-649.4" font-family="Times Roman,serif" font-size="14.00">updated_at :datetime</text>
</g>
<!-- BrandAvailable -->
<g id="node8" class="node"><title>BrandAvailable</title>
<polyline fill="none" stroke="black" points="1553.5,-649 1694.5,-649 "/>
<path fill="none" stroke="black" d="M1694.5,-649C1700.5,-649 1706.5,-655 1706.5,-661"/>
<polyline fill="none" stroke="black" points="1706.5,-661 1706.5,-725 "/>
<path fill="none" stroke="black" d="M1706.5,-725C1706.5,-731 1700.5,-737 1694.5,-737"/>
<polyline fill="none" stroke="black" points="1694.5,-737 1553.5,-737 "/>
<path fill="none" stroke="black" d="M1553.5,-737C1547.5,-737 1541.5,-731 1541.5,-725"/>
<polyline fill="none" stroke="black" points="1541.5,-725 1541.5,-661 "/>
<path fill="none" stroke="black" d="M1541.5,-661C1541.5,-655 1547.5,-649 1553.5,-649"/>
<text text-anchor="middle" x="1624" y="-720.4" font-family="Times Roman,serif" font-size="14.00">BrandAvailable</text>
<polyline fill="none" stroke="black" points="1541.5,-711 1706.5,-711 "/>
<text text-anchor="start" x="1549.5" y="-694.4" font-family="Times Roman,serif" font-size="14.00">description :string</text>
<text text-anchor="start" x="1549.5" y="-676.4" font-family="Times Roman,serif" font-size="14.00">created_at :datetime</text>
<text text-anchor="start" x="1549.5" y="-658.4" font-family="Times Roman,serif" font-size="14.00">updated_at :datetime</text>
</g>
<!-- PaymentMethod -->
<g id="node9" class="node"><title>PaymentMethod</title>
<polyline fill="none" stroke="black" points="643.5,-649 784.5,-649 "/>
<path fill="none" stroke="black" d="M784.5,-649C790.5,-649 796.5,-655 796.5,-661"/>
<polyline fill="none" stroke="black" points="796.5,-661 796.5,-725 "/>
<path fill="none" stroke="black" d="M796.5,-725C796.5,-731 790.5,-737 784.5,-737"/>
<polyline fill="none" stroke="black" points="784.5,-737 643.5,-737 "/>
<path fill="none" stroke="black" d="M643.5,-737C637.5,-737 631.5,-731 631.5,-725"/>
<polyline fill="none" stroke="black" points="631.5,-725 631.5,-661 "/>
<path fill="none" stroke="black" d="M631.5,-661C631.5,-655 637.5,-649 643.5,-649"/>
<text text-anchor="middle" x="714" y="-720.4" font-family="Times Roman,serif" font-size="14.00">PaymentMethod</text>
<polyline fill="none" stroke="black" points="631.5,-711 796.5,-711 "/>
<text text-anchor="start" x="639.5" y="-694.4" font-family="Times Roman,serif" font-size="14.00">name :string</text>
<text text-anchor="start" x="639.5" y="-676.4" font-family="Times Roman,serif" font-size="14.00">created_at :datetime</text>
<text text-anchor="start" x="639.5" y="-658.4" font-family="Times Roman,serif" font-size="14.00">updated_at :datetime</text>
</g>
<!-- PaymentMethod&#45;&gt;BusinessUnit -->
<g id="edge8" class="edge"><title>PaymentMethod&#45;&gt;BusinessUnit</title>
<path fill="none" stroke="#22a06b" d="M671.898,-640.951C653.673,-618.42 631.727,-591.289 610.677,-565.266"/>
<polygon fill="#22a06b" stroke="#22a06b" points="671.971,-641.041 674.761,-651.646 675.115,-644.928 678.26,-648.816 678.26,-648.816 678.26,-648.816 675.115,-644.928 681.759,-645.986 671.971,-641.041 671.971,-641.041"/>
<polygon fill="#22a06b" stroke="#22a06b" points="610.467,-565.006 607.677,-554.401 607.323,-561.119 604.178,-557.231 604.178,-557.231 604.178,-557.231 607.323,-561.119 600.68,-560.062 610.467,-565.006 610.467,-565.006"/>
</g>
<!-- User -->
<g id="node10" class="node"><title>User</title>
<polyline fill="none" stroke="black" points="1736,-595 1924,-595 "/>
<path fill="none" stroke="black" d="M1924,-595C1930,-595 1936,-601 1936,-607"/>
<polyline fill="none" stroke="black" points="1936,-607 1936,-779 "/>
<path fill="none" stroke="black" d="M1936,-779C1936,-785 1930,-791 1924,-791"/>
<polyline fill="none" stroke="black" points="1924,-791 1736,-791 "/>
<path fill="none" stroke="black" d="M1736,-791C1730,-791 1724,-785 1724,-779"/>
<polyline fill="none" stroke="black" points="1724,-779 1724,-607 "/>
<path fill="none" stroke="black" d="M1724,-607C1724,-601 1730,-595 1736,-595"/>
<text text-anchor="middle" x="1830" y="-774.4" font-family="Times Roman,serif" font-size="14.00">User</text>
<polyline fill="none" stroke="black" points="1724,-765 1936,-765 "/>
<text text-anchor="start" x="1732" y="-748.4" font-family="Times Roman,serif" font-size="14.00">name :string</text>
<text text-anchor="start" x="1732" y="-730.4" font-family="Times Roman,serif" font-size="14.00">email :string</text>
<text text-anchor="start" x="1732" y="-712.4" font-family="Times Roman,serif" font-size="14.00">password_hash :string</text>
<text text-anchor="start" x="1732" y="-694.4" font-family="Times Roman,serif" font-size="14.00">password_salt :string</text>
<text text-anchor="start" x="1732" y="-676.4" font-family="Times Roman,serif" font-size="14.00">activation_code :string</text>
<text text-anchor="start" x="1732" y="-658.4" font-family="Times Roman,serif" font-size="14.00">activated_at :datetime</text>
<text text-anchor="start" x="1732" y="-640.4" font-family="Times Roman,serif" font-size="14.00">reset_password_code :string</text>
<text text-anchor="start" x="1732" y="-622.4" font-family="Times Roman,serif" font-size="14.00">created_at :datetime</text>
<text text-anchor="start" x="1732" y="-604.4" font-family="Times Roman,serif" font-size="14.00">updated_at :datetime</text>
</g>
<!-- Contact -->
<g id="node11" class="node"><title>Contact</title>
<polyline fill="none" stroke="black" points="1965.5,-649 2106.5,-649 "/>
<path fill="none" stroke="black" d="M2106.5,-649C2112.5,-649 2118.5,-655 2118.5,-661"/>
<polyline fill="none" stroke="black" points="2118.5,-661 2118.5,-725 "/>
<path fill="none" stroke="black" d="M2118.5,-725C2118.5,-731 2112.5,-737 2106.5,-737"/>
<polyline fill="none" stroke="black" points="2106.5,-737 1965.5,-737 "/>
<path fill="none" stroke="black" d="M1965.5,-737C1959.5,-737 1953.5,-731 1953.5,-725"/>
<polyline fill="none" stroke="black" points="1953.5,-725 1953.5,-661 "/>
<path fill="none" stroke="black" d="M1953.5,-661C1953.5,-655 1959.5,-649 1965.5,-649"/>
<text text-anchor="middle" x="2036" y="-720.4" font-family="Times Roman,serif" font-size="14.00">Contact</text>
<polyline fill="none" stroke="black" points="1953.5,-711 2118.5,-711 "/>
<text text-anchor="start" x="1961.5" y="-694.4" font-family="Times Roman,serif" font-size="14.00">name :string</text>
<text text-anchor="start" x="1961.5" y="-676.4" font-family="Times Roman,serif" font-size="14.00">created_at :datetime</text>
<text text-anchor="start" x="1961.5" y="-658.4" font-family="Times Roman,serif" font-size="14.00">updated_at :datetime</text>
</g>
<!-- City -->
<g id="node12" class="node"><title>City</title>
<polyline fill="none" stroke="black" points="952.5,-424 1093.5,-424 "/>
<path fill="none" stroke="black" d="M1093.5,-424C1099.5,-424 1105.5,-430 1105.5,-436"/>
<polyline fill="none" stroke="black" points="1105.5,-436 1105.5,-500 "/>
<path fill="none" stroke="black" d="M1105.5,-500C1105.5,-506 1099.5,-512 1093.5,-512"/>
<polyline fill="none" stroke="black" points="1093.5,-512 952.5,-512 "/>
<path fill="none" stroke="black" d="M952.5,-512C946.5,-512 940.5,-506 940.5,-500"/>
<polyline fill="none" stroke="black" points="940.5,-500 940.5,-436 "/>
<path fill="none" stroke="black" d="M940.5,-436C940.5,-430 946.5,-424 952.5,-424"/>
<text text-anchor="middle" x="1023" y="-495.4" font-family="Times Roman,serif" font-size="14.00">City</text>
<polyline fill="none" stroke="black" points="940.5,-486 1105.5,-486 "/>
<text text-anchor="start" x="948.5" y="-469.4" font-family="Times Roman,serif" font-size="14.00">name :string</text>
<text text-anchor="start" x="948.5" y="-451.4" font-family="Times Roman,serif" font-size="14.00">created_at :datetime</text>
<text text-anchor="start" x="948.5" y="-433.4" font-family="Times Roman,serif" font-size="14.00">updated_at :datetime</text>
</g>
<!-- City&#45;&gt;District -->
<g id="edge12" class="edge"><title>City&#45;&gt;District</title>
<path fill="none" stroke="#80c843" d="M1012.89,-415.321C1007.5,-387.247 1000.88,-352.757 995.445,-324.423"/>
<ellipse fill="none" stroke="#80c843" cx="1013.72" cy="-419.637" rx="4.00001" ry="4.00001"/>
<polygon fill="#80c843" stroke="#80c843" points="995.384,-324.108 997.919,-313.439 994.442,-319.197 993.499,-314.287 993.499,-314.287 993.499,-314.287 994.442,-319.197 989.08,-315.135 995.384,-324.108 995.384,-324.108"/>
</g>
<!-- City&#45;&gt;Address -->
<g id="edge10" class="edge"><title>City&#45;&gt;Address</title>
<path fill="none" stroke="#d7b99f" d="M1049.22,-416.33C1059.34,-394.027 1069.93,-367.294 1076,-342 1089.36,-286.305 1094.17,-222.171 1095.61,-171.416"/>
<ellipse fill="none" stroke="#d7b99f" cx="1047.49" cy="-420.083" rx="4.00002" ry="4.00002"/>
<polygon fill="#d7b99f" stroke="#d7b99f" points="1095.62,-171.12 1100.36,-161.233 1095.74,-166.122 1095.86,-161.123 1095.86,-161.123 1095.86,-161.123 1095.74,-166.122 1091.36,-161.013 1095.62,-171.12 1095.62,-171.12"/>
</g>
<!-- Timetable -->
<g id="node18" class="node"><title>Timetable</title>
<polyline fill="none" stroke="black" points="461.5,-199 602.5,-199 "/>
<path fill="none" stroke="black" d="M602.5,-199C608.5,-199 614.5,-205 614.5,-211"/>
<polyline fill="none" stroke="black" points="614.5,-211 614.5,-329 "/>
<path fill="none" stroke="black" d="M614.5,-329C614.5,-335 608.5,-341 602.5,-341"/>
<polyline fill="none" stroke="black" points="602.5,-341 461.5,-341 "/>
<path fill="none" stroke="black" d="M461.5,-341C455.5,-341 449.5,-335 449.5,-329"/>
<polyline fill="none" stroke="black" points="449.5,-329 449.5,-211 "/>
<path fill="none" stroke="black" d="M449.5,-211C449.5,-205 455.5,-199 461.5,-199"/>
<text text-anchor="middle" x="532" y="-324.4" font-family="Times Roman,serif" font-size="14.00">Timetable</text>
<polyline fill="none" stroke="black" points="449.5,-315 614.5,-315 "/>
<text text-anchor="start" x="457.5" y="-298.4" font-family="Times Roman,serif" font-size="14.00">start_date :string</text>
<text text-anchor="start" x="457.5" y="-280.4" font-family="Times Roman,serif" font-size="14.00">end_date :string</text>
<text text-anchor="start" x="457.5" y="-262.4" font-family="Times Roman,serif" font-size="14.00">start_time :string</text>
<text text-anchor="start" x="457.5" y="-244.4" font-family="Times Roman,serif" font-size="14.00">end_time :string</text>
<text text-anchor="start" x="457.5" y="-226.4" font-family="Times Roman,serif" font-size="14.00">created_at :datetime</text>
<text text-anchor="start" x="457.5" y="-208.4" font-family="Times Roman,serif" font-size="14.00">updated_at :datetime</text>
</g>
<!-- BusinessUnit&#45;&gt;Timetable -->
<g id="edge14" class="edge"><title>BusinessUnit&#45;&gt;Timetable</title>
<path fill="none" stroke="#e4af77" d="M532,-370.836C532,-364.271 532,-357.694 532,-351.223"/>
<ellipse fill="none" stroke="#e4af77" cx="532" cy="-374.847" rx="4" ry="4"/>
<polygon fill="#e4af77" stroke="#e4af77" points="532,-351.156 536.5,-341.156 532,-346.156 532,-341.156 532,-341.156 532,-341.156 532,-346.156 527.5,-341.156 532,-351.156 532,-351.156"/>
</g>
<!-- ProductAvailable -->
<g id="node14" class="node"><title>ProductAvailable</title>
<polyline fill="none" stroke="black" points="2147.5,-649 2288.5,-649 "/>
<path fill="none" stroke="black" d="M2288.5,-649C2294.5,-649 2300.5,-655 2300.5,-661"/>
<polyline fill="none" stroke="black" points="2300.5,-661 2300.5,-725 "/>
<path fill="none" stroke="black" d="M2300.5,-725C2300.5,-731 2294.5,-737 2288.5,-737"/>
<polyline fill="none" stroke="black" points="2288.5,-737 2147.5,-737 "/>
<path fill="none" stroke="black" d="M2147.5,-737C2141.5,-737 2135.5,-731 2135.5,-725"/>
<polyline fill="none" stroke="black" points="2135.5,-725 2135.5,-661 "/>
<path fill="none" stroke="black" d="M2135.5,-661C2135.5,-655 2141.5,-649 2147.5,-649"/>
<text text-anchor="middle" x="2218" y="-720.4" font-family="Times Roman,serif" font-size="14.00">ProductAvailable</text>
<polyline fill="none" stroke="black" points="2135.5,-711 2300.5,-711 "/>
<text text-anchor="start" x="2143.5" y="-694.4" font-family="Times Roman,serif" font-size="14.00">description :string</text>
<text text-anchor="start" x="2143.5" y="-676.4" font-family="Times Roman,serif" font-size="14.00">created_at :datetime</text>
<text text-anchor="start" x="2143.5" y="-658.4" font-family="Times Roman,serif" font-size="14.00">updated_at :datetime</text>
</g>
<!-- State -->
<g id="node15" class="node"><title>State</title>
<polyline fill="none" stroke="black" points="1007.5,-649 1148.5,-649 "/>
<path fill="none" stroke="black" d="M1148.5,-649C1154.5,-649 1160.5,-655 1160.5,-661"/>
<polyline fill="none" stroke="black" points="1160.5,-661 1160.5,-725 "/>
<path fill="none" stroke="black" d="M1160.5,-725C1160.5,-731 1154.5,-737 1148.5,-737"/>
<polyline fill="none" stroke="black" points="1148.5,-737 1007.5,-737 "/>
<path fill="none" stroke="black" d="M1007.5,-737C1001.5,-737 995.5,-731 995.5,-725"/>
<polyline fill="none" stroke="black" points="995.5,-725 995.5,-661 "/>
<path fill="none" stroke="black" d="M995.5,-661C995.5,-655 1001.5,-649 1007.5,-649"/>
<text text-anchor="middle" x="1078" y="-720.4" font-family="Times Roman,serif" font-size="14.00">State</text>
<polyline fill="none" stroke="black" points="995.5,-711 1160.5,-711 "/>
<text text-anchor="start" x="1003.5" y="-694.4" font-family="Times Roman,serif" font-size="14.00">name :string</text>
<text text-anchor="start" x="1003.5" y="-676.4" font-family="Times Roman,serif" font-size="14.00">created_at :datetime</text>
<text text-anchor="start" x="1003.5" y="-658.4" font-family="Times Roman,serif" font-size="14.00">updated_at :datetime</text>
</g>
<!-- State&#45;&gt;City -->
<g id="edge16" class="edge"><title>State&#45;&gt;City</title>
<path fill="none" stroke="#1c176d" d="M1065.22,-640.708C1056.5,-605.043 1044.98,-557.934 1036.18,-521.926"/>
<ellipse fill="none" stroke="#1c176d" cx="1066.25" cy="-644.93" rx="4.00001" ry="4.00001"/>
<polygon fill="#1c176d" stroke="#1c176d" points="1036.15,-521.797 1038.15,-511.015 1034.96,-516.94 1033.78,-512.083 1033.78,-512.083 1033.78,-512.083 1034.96,-516.94 1029.4,-513.152 1036.15,-521.797 1036.15,-521.797"/>
</g>
<!-- State&#45;&gt;Address -->
<g id="edge18" class="edge"><title>State&#45;&gt;Address</title>
<path fill="none" stroke="#35e58c" d="M1095.25,-641.036C1102.62,-616.208 1110.35,-585.887 1114,-558 1131.55,-424.068 1119.05,-267.333 1107.65,-171.115"/>
<ellipse fill="none" stroke="#35e58c" cx="1094.04" cy="-645.065" rx="4.00001" ry="4.00001"/>
<polygon fill="#35e58c" stroke="#35e58c" points="1107.65,-171.059 1110.92,-160.592 1107.05,-166.095 1106.45,-161.131 1106.45,-161.131 1106.45,-161.131 1107.05,-166.095 1101.98,-161.67 1107.65,-171.059 1107.65,-171.059"/>
</g>
<!-- WebMidia -->
<g id="node16" class="node"><title>WebMidia</title>
<polyline fill="none" stroke="black" points="2329.5,-649 2470.5,-649 "/>
<path fill="none" stroke="black" d="M2470.5,-649C2476.5,-649 2482.5,-655 2482.5,-661"/>
<polyline fill="none" stroke="black" points="2482.5,-661 2482.5,-725 "/>
<path fill="none" stroke="black" d="M2482.5,-725C2482.5,-731 2476.5,-737 2470.5,-737"/>
<polyline fill="none" stroke="black" points="2470.5,-737 2329.5,-737 "/>
<path fill="none" stroke="black" d="M2329.5,-737C2323.5,-737 2317.5,-731 2317.5,-725"/>
<polyline fill="none" stroke="black" points="2317.5,-725 2317.5,-661 "/>
<path fill="none" stroke="black" d="M2317.5,-661C2317.5,-655 2323.5,-649 2329.5,-649"/>
<text text-anchor="middle" x="2400" y="-720.4" font-family="Times Roman,serif" font-size="14.00">WebMidia</text>
<polyline fill="none" stroke="black" points="2317.5,-711 2482.5,-711 "/>
<text text-anchor="start" x="2325.5" y="-694.4" font-family="Times Roman,serif" font-size="14.00">url :string</text>
<text text-anchor="start" x="2325.5" y="-676.4" font-family="Times Roman,serif" font-size="14.00">created_at :datetime</text>
<text text-anchor="start" x="2325.5" y="-658.4" font-family="Times Roman,serif" font-size="14.00">updated_at :datetime</text>
</g>
<!-- Street -->
<g id="node17" class="node"><title>Street</title>
<polyline fill="none" stroke="black" points="2511.5,-622 2658.5,-622 "/>
<path fill="none" stroke="black" d="M2658.5,-622C2664.5,-622 2670.5,-628 2670.5,-634"/>
<polyline fill="none" stroke="black" points="2670.5,-634 2670.5,-752 "/>
<path fill="none" stroke="black" d="M2670.5,-752C2670.5,-758 2664.5,-764 2658.5,-764"/>
<polyline fill="none" stroke="black" points="2658.5,-764 2511.5,-764 "/>
<path fill="none" stroke="black" d="M2511.5,-764C2505.5,-764 2499.5,-758 2499.5,-752"/>
<polyline fill="none" stroke="black" points="2499.5,-752 2499.5,-634 "/>
<path fill="none" stroke="black" d="M2499.5,-634C2499.5,-628 2505.5,-622 2511.5,-622"/>
<text text-anchor="middle" x="2585" y="-747.4" font-family="Times Roman,serif" font-size="14.00">Street</text>
<polyline fill="none" stroke="black" points="2499.5,-738 2670.5,-738 "/>
<text text-anchor="start" x="2507.5" y="-721.4" font-family="Times Roman,serif" font-size="14.00">name :string</text>
<text text-anchor="start" x="2507.5" y="-703.4" font-family="Times Roman,serif" font-size="14.00">number :integer</text>
<text text-anchor="start" x="2507.5" y="-685.4" font-family="Times Roman,serif" font-size="14.00">additional_data :string</text>
<text text-anchor="start" x="2507.5" y="-667.4" font-family="Times Roman,serif" font-size="14.00">zip_code :string</text>
<text text-anchor="start" x="2507.5" y="-649.4" font-family="Times Roman,serif" font-size="14.00">created_at :datetime</text>
<text text-anchor="start" x="2507.5" y="-631.4" font-family="Times Roman,serif" font-size="14.00">updated_at :datetime</text>
</g>
<!-- Company -->
<g id="node19" class="node"><title>Company</title>
<polyline fill="none" stroke="black" points="2699.5,-649 2840.5,-649 "/>
<path fill="none" stroke="black" d="M2840.5,-649C2846.5,-649 2852.5,-655 2852.5,-661"/>
<polyline fill="none" stroke="black" points="2852.5,-661 2852.5,-725 "/>
<path fill="none" stroke="black" d="M2852.5,-725C2852.5,-731 2846.5,-737 2840.5,-737"/>
<polyline fill="none" stroke="black" points="2840.5,-737 2699.5,-737 "/>
<path fill="none" stroke="black" d="M2699.5,-737C2693.5,-737 2687.5,-731 2687.5,-725"/>
<polyline fill="none" stroke="black" points="2687.5,-725 2687.5,-661 "/>
<path fill="none" stroke="black" d="M2687.5,-661C2687.5,-655 2693.5,-649 2699.5,-649"/>
<text text-anchor="middle" x="2770" y="-720.4" font-family="Times Roman,serif" font-size="14.00">Company</text>
<polyline fill="none" stroke="black" points="2687.5,-711 2852.5,-711 "/>
<text text-anchor="start" x="2695.5" y="-694.4" font-family="Times Roman,serif" font-size="14.00">name :string</text>
<text text-anchor="start" x="2695.5" y="-676.4" font-family="Times Roman,serif" font-size="14.00">created_at :datetime</text>
<text text-anchor="start" x="2695.5" y="-658.4" font-family="Times Roman,serif" font-size="14.00">updated_at :datetime</text>
</g>
<!-- TypeWebMidia -->
<g id="node21" class="node"><title>TypeWebMidia</title>
<polyline fill="none" stroke="black" points="2881.5,-640 3022.5,-640 "/>
<path fill="none" stroke="black" d="M3022.5,-640C3028.5,-640 3034.5,-646 3034.5,-652"/>
<polyline fill="none" stroke="black" points="3034.5,-652 3034.5,-734 "/>
<path fill="none" stroke="black" d="M3034.5,-734C3034.5,-740 3028.5,-746 3022.5,-746"/>
<polyline fill="none" stroke="black" points="3022.5,-746 2881.5,-746 "/>
<path fill="none" stroke="black" d="M2881.5,-746C2875.5,-746 2869.5,-740 2869.5,-734"/>
<polyline fill="none" stroke="black" points="2869.5,-734 2869.5,-652 "/>
<path fill="none" stroke="black" d="M2869.5,-652C2869.5,-646 2875.5,-640 2881.5,-640"/>
<text text-anchor="middle" x="2952" y="-729.4" font-family="Times Roman,serif" font-size="14.00">TypeWebMidia</text>
<polyline fill="none" stroke="black" points="2869.5,-720 3034.5,-720 "/>
<text text-anchor="start" x="2877.5" y="-703.4" font-family="Times Roman,serif" font-size="14.00">name :string</text>
<text text-anchor="start" x="2877.5" y="-685.4" font-family="Times Roman,serif" font-size="14.00">logo :string</text>
<text text-anchor="start" x="2877.5" y="-667.4" font-family="Times Roman,serif" font-size="14.00">created_at :datetime</text>
<text text-anchor="start" x="2877.5" y="-649.4" font-family="Times Roman,serif" font-size="14.00">updated_at :datetime</text>
</g>
<!-- Email -->
<g id="node22" class="node"><title>Email</title>
<polyline fill="none" stroke="black" points="3063.5,-649 3204.5,-649 "/>
<path fill="none" stroke="black" d="M3204.5,-649C3210.5,-649 3216.5,-655 3216.5,-661"/>
<polyline fill="none" stroke="black" points="3216.5,-661 3216.5,-725 "/>
<path fill="none" stroke="black" d="M3216.5,-725C3216.5,-731 3210.5,-737 3204.5,-737"/>
<polyline fill="none" stroke="black" points="3204.5,-737 3063.5,-737 "/>
<path fill="none" stroke="black" d="M3063.5,-737C3057.5,-737 3051.5,-731 3051.5,-725"/>
<polyline fill="none" stroke="black" points="3051.5,-725 3051.5,-661 "/>
<path fill="none" stroke="black" d="M3051.5,-661C3051.5,-655 3057.5,-649 3063.5,-649"/>
<text text-anchor="middle" x="3134" y="-720.4" font-family="Times Roman,serif" font-size="14.00">Email</text>
<polyline fill="none" stroke="black" points="3051.5,-711 3216.5,-711 "/>
<text text-anchor="start" x="3059.5" y="-694.4" font-family="Times Roman,serif" font-size="14.00">address :string</text>
<text text-anchor="start" x="3059.5" y="-676.4" font-family="Times Roman,serif" font-size="14.00">created_at :datetime</text>
<text text-anchor="start" x="3059.5" y="-658.4" font-family="Times Roman,serif" font-size="14.00">updated_at :datetime</text>
</g>
</g>
</svg>
