<?xml version="1.0" encoding="UTF-8" standalone="no"?>
<!DOCTYPE svg PUBLIC "-//W3C//DTD SVG 1.1//EN"
 "http://www.w3.org/Graphics/SVG/1.1/DTD/svg11.dtd">
<!-- Generated by graphviz version 2.26.3 (20100126.1600)
 -->
<!-- Title: models_diagram Pages: 1 -->
<svg width="2666pt" height="324pt"
 viewBox="0.00 0.00 2666.00 324.00" xmlns="http://www.w3.org/2000/svg" xmlns:xlink="http://www.w3.org/1999/xlink">
<g id="graph1" class="graph" transform="scale(1 1) rotate(0) translate(4 320)">
<title>models_diagram</title>
<polygon fill="white" stroke="white" points="-4,5 -4,-320 2663,-320 2663,5 -4,5"/>
<!-- _diagram_info -->
<g id="node1" class="node"><title>_diagram_info</title>
<text text-anchor="start" x="8" y="-299.8" font-family="Times Roman,serif" font-size="13.00">Models diagram</text>
<text text-anchor="start" x="8" y="-282.8" font-family="Times Roman,serif" font-size="13.00">Date: Jul 11 2012 &#45; 14:00</text>
<text text-anchor="start" x="8" y="-265.8" font-family="Times Roman,serif" font-size="13.00">Migration version: 20120709182642</text>
<text text-anchor="start" x="8" y="-248.8" font-family="Times Roman,serif" font-size="13.00">Generated by RailRoady 1.0.7</text>
<text text-anchor="start" x="8" y="-231.8" font-family="Times Roman,serif" font-size="13.00">http://railroady.prestonlee.com</text>
</g>
<!-- ProfessionalActivity -->
<g id="node2" class="node"><title>ProfessionalActivity</title>
<ellipse fill="none" stroke="black" cx="375" cy="-269" rx="106.98" ry="18.3848"/>
<text text-anchor="middle" x="375" y="-265.4" font-family="Times Roman,serif" font-size="14.00">ProfessionalActivity</text>
</g>
<!-- BusinessUnit -->
<g id="node13" class="node"><title>BusinessUnit</title>
<ellipse fill="none" stroke="black" cx="584" cy="-167" rx="74.9533" ry="18.3848"/>
<text text-anchor="middle" x="584" y="-163.4" font-family="Times Roman,serif" font-size="14.00">BusinessUnit</text>
</g>
<!-- ProfessionalActivity&#45;&gt;BusinessUnit -->
<g id="edge2" class="edge"><title>ProfessionalActivity&#45;&gt;BusinessUnit</title>
<path fill="none" stroke="#e870ef" d="M419.966,-247.055C455.752,-229.59 505.516,-205.303 540.825,-188.071"/>
<polygon fill="#e870ef" stroke="#e870ef" points="419.915,-247.08 408.955,-247.421 415.422,-249.273 410.928,-251.466 410.928,-251.466 410.928,-251.466 415.422,-249.273 412.902,-255.51 419.915,-247.08 419.915,-247.08"/>
<polygon fill="#e870ef" stroke="#e870ef" points="540.938,-188.016 551.898,-187.674 545.431,-185.823 549.924,-183.63 549.924,-183.63 549.924,-183.63 545.431,-185.823 547.951,-179.586 540.938,-188.016 540.938,-188.016"/>
</g>
<!-- Phone -->
<g id="node3" class="node"><title>Phone</title>
<ellipse fill="none" stroke="black" cx="928" cy="-269" rx="41.9273" ry="18.3848"/>
<text text-anchor="middle" x="928" y="-265.4" font-family="Times Roman,serif" font-size="14.00">Phone</text>
</g>
<!-- District -->
<g id="node4" class="node"><title>District</title>
<ellipse fill="none" stroke="black" cx="942" cy="-93" rx="46.8775" ry="18.3848"/>
<text text-anchor="middle" x="942" y="-89.4" font-family="Times Roman,serif" font-size="14.00">District</text>
</g>
<!-- Address -->
<g id="node20" class="node"><title>Address</title>
<ellipse fill="none" stroke="black" cx="1017" cy="-19" rx="50.2046" ry="18.3848"/>
<text text-anchor="middle" x="1017" y="-15.4" font-family="Times Roman,serif" font-size="14.00">Address</text>
</g>
<!-- District&#45;&gt;Address -->
<g id="edge4" class="edge"><title>District&#45;&gt;Address</title>
<path fill="none" stroke="#e77927" d="M965.623,-69.6916C974.069,-61.359 983.607,-51.948 992.152,-43.5166"/>
<ellipse fill="none" stroke="#e77927" cx="962.621" cy="-72.6536" rx="4.00002" ry="4.00002"/>
<polygon fill="#e77927" stroke="#e77927" points="992.235,-43.4346 1002.51,-39.6144 995.794,-39.9228 999.354,-36.4111 999.354,-36.4111 999.354,-36.4111 995.794,-39.9228 996.193,-33.2078 992.235,-43.4346 992.235,-43.4346"/>
</g>
<!-- ServiceAvailable -->
<g id="node5" class="node"><title>ServiceAvailable</title>
<ellipse fill="none" stroke="black" cx="1172" cy="-269" rx="90.0096" ry="18.3848"/>
<text text-anchor="middle" x="1172" y="-265.4" font-family="Times Roman,serif" font-size="14.00">ServiceAvailable</text>
</g>
<!-- BusinessGroup -->
<g id="node6" class="node"><title>BusinessGroup</title>
<ellipse fill="none" stroke="black" cx="584" cy="-269" rx="84.1457" ry="18.3848"/>
<text text-anchor="middle" x="584" y="-265.4" font-family="Times Roman,serif" font-size="14.00">BusinessGroup</text>
</g>
<!-- BusinessGroup&#45;&gt;BusinessUnit -->
<g id="edge6" class="edge"><title>BusinessGroup&#45;&gt;BusinessUnit</title>
<path fill="none" stroke="#a1ca92" d="M584,-242.015C584,-227.835 584,-210.445 584,-195.98"/>
<ellipse fill="none" stroke="#a1ca92" cx="584" cy="-246.292" rx="4" ry="4"/>
<polygon fill="#a1ca92" stroke="#a1ca92" points="584,-195.59 588.5,-185.59 584,-190.59 584,-185.59 584,-185.59 584,-185.59 584,-190.59 579.5,-185.59 584,-195.59 584,-195.59"/>
</g>
<!-- TypeContact -->
<g id="node7" class="node"><title>TypeContact</title>
<ellipse fill="none" stroke="black" cx="1352" cy="-269" rx="72.1249" ry="18.3848"/>
<text text-anchor="middle" x="1352" y="-265.4" font-family="Times Roman,serif" font-size="14.00">TypeContact</text>
</g>
<!-- BrandAvailable -->
<g id="node8" class="node"><title>BrandAvailable</title>
<ellipse fill="none" stroke="black" cx="1526" cy="-269" rx="84.1457" ry="18.3848"/>
<text text-anchor="middle" x="1526" y="-265.4" font-family="Times Roman,serif" font-size="14.00">BrandAvailable</text>
</g>
<!-- PaymentMethod -->
<g id="node9" class="node"><title>PaymentMethod</title>
<ellipse fill="none" stroke="black" cx="777" cy="-269" rx="91.2168" ry="18.3848"/>
<text text-anchor="middle" x="777" y="-265.4" font-family="Times Roman,serif" font-size="14.00">PaymentMethod</text>
</g>
<!-- PaymentMethod&#45;&gt;BusinessUnit -->
<g id="edge8" class="edge"><title>PaymentMethod&#45;&gt;BusinessUnit</title>
<path fill="none" stroke="#a2be58" d="M735.042,-246.825C702.454,-229.603 657.51,-205.85 625.133,-188.739"/>
<polygon fill="#a2be58" stroke="#a2be58" points="735.419,-247.024 742.158,-255.676 739.84,-249.361 744.26,-251.697 744.26,-251.697 744.26,-251.697 739.84,-249.361 746.363,-247.719 735.419,-247.024 735.419,-247.024"/>
<polygon fill="#a2be58" stroke="#a2be58" points="624.777,-188.551 618.039,-179.9 620.357,-186.214 615.936,-183.878 615.936,-183.878 615.936,-183.878 620.357,-186.214 613.833,-187.857 624.777,-188.551 624.777,-188.551"/>
</g>
<!-- User -->
<g id="node10" class="node"><title>User</title>
<ellipse fill="none" stroke="black" cx="1662" cy="-269" rx="33.9411" ry="18.3848"/>
<text text-anchor="middle" x="1662" y="-265.4" font-family="Times Roman,serif" font-size="14.00">User</text>
</g>
<!-- Contact -->
<g id="node11" class="node"><title>Contact</title>
<ellipse fill="none" stroke="black" cx="1764" cy="-269" rx="50.2046" ry="18.3848"/>
<text text-anchor="middle" x="1764" y="-265.4" font-family="Times Roman,serif" font-size="14.00">Contact</text>
</g>
<!-- City -->
<g id="node12" class="node"><title>City</title>
<ellipse fill="none" stroke="black" cx="996" cy="-167" rx="31.1127" ry="18.3848"/>
<text text-anchor="middle" x="996" y="-163.4" font-family="Times Roman,serif" font-size="14.00">City</text>
</g>
<!-- City&#45;&gt;District -->
<g id="edge12" class="edge"><title>City&#45;&gt;District</title>
<path fill="none" stroke="#862d6f" d="M978.639,-143.209C973.008,-135.492 966.732,-126.892 960.988,-119.021"/>
<ellipse fill="none" stroke="#862d6f" cx="981.118" cy="-146.606" rx="4.00002" ry="4.00002"/>
<polygon fill="#862d6f" stroke="#862d6f" points="960.915,-118.921 958.655,-108.19 957.968,-114.882 955.02,-110.843 955.02,-110.843 955.02,-110.843 957.968,-114.882 951.385,-113.495 960.915,-118.921 960.915,-118.921"/>
</g>
<!-- City&#45;&gt;Address -->
<g id="edge10" class="edge"><title>City&#45;&gt;Address</title>
<path fill="none" stroke="#14d385" d="M999.785,-140.327C1003.5,-114.167 1009.14,-74.4112 1012.94,-47.6056"/>
<ellipse fill="none" stroke="#14d385" cx="999.179" cy="-144.595" rx="4.00001" ry="4.00001"/>
<polygon fill="#14d385" stroke="#14d385" points="1012.94,-47.5783 1018.81,-38.3097 1013.65,-42.6279 1014.35,-37.6775 1014.35,-37.6775 1014.35,-37.6775 1013.65,-42.6279 1009.89,-37.0453 1012.94,-47.5783 1012.94,-47.5783"/>
</g>
<!-- Timetable -->
<g id="node18" class="node"><title>Timetable</title>
<ellipse fill="none" stroke="black" cx="584" cy="-93" rx="58.8978" ry="18.3848"/>
<text text-anchor="middle" x="584" y="-89.4" font-family="Times Roman,serif" font-size="14.00">Timetable</text>
</g>
<!-- BusinessUnit&#45;&gt;Timetable -->
<g id="edge14" class="edge"><title>BusinessUnit&#45;&gt;Timetable</title>
<path fill="none" stroke="#a00b9e" d="M584,-140.309C584,-134.377 584,-128.061 584,-122.04"/>
<ellipse fill="none" stroke="#a00b9e" cx="584" cy="-144.327" rx="4" ry="4"/>
<polygon fill="#a00b9e" stroke="#a00b9e" points="584,-121.667 588.5,-111.667 584,-116.667 584,-111.667 584,-111.667 584,-111.667 584,-116.667 579.5,-111.667 584,-121.667 584,-121.667"/>
</g>
<!-- ProductAvailable -->
<g id="node14" class="node"><title>ProductAvailable</title>
<ellipse fill="none" stroke="black" cx="1924" cy="-269" rx="92.1303" ry="18.3848"/>
<text text-anchor="middle" x="1924" y="-265.4" font-family="Times Roman,serif" font-size="14.00">ProductAvailable</text>
</g>
<!-- State -->
<g id="node15" class="node"><title>State</title>
<ellipse fill="none" stroke="black" cx="1026" cy="-269" rx="38.1838" ry="18.3848"/>
<text text-anchor="middle" x="1026" y="-265.4" font-family="Times Roman,serif" font-size="14.00">State</text>
</g>
<!-- State&#45;&gt;City -->
<g id="edge16" class="edge"><title>State&#45;&gt;City</title>
<path fill="none" stroke="#92fb86" d="M1018.19,-242.448C1013.89,-227.835 1008.56,-209.715 1004.2,-194.895"/>
<ellipse fill="none" stroke="#92fb86" cx="1019.37" cy="-246.454" rx="4.00001" ry="4.00001"/>
<polygon fill="#92fb86" stroke="#92fb86" points="1004.19,-194.84 1005.68,-183.977 1002.78,-190.043 1001.37,-185.247 1001.37,-185.247 1001.37,-185.247 1002.78,-190.043 997.049,-186.516 1004.19,-194.84 1004.19,-194.84"/>
</g>
<!-- State&#45;&gt;Address -->
<g id="edge18" class="edge"><title>State&#45;&gt;Address</title>
<path fill="none" stroke="#49257d" d="M1030.05,-242.268C1032.3,-226.037 1034.87,-204.876 1036,-186 1038.93,-137.113 1029.85,-80.5472 1023.25,-47.3838"/>
<ellipse fill="none" stroke="#49257d" cx="1029.47" cy="-246.308" rx="4.00001" ry="4.00001"/>
<polygon fill="#49257d" stroke="#49257d" points="1023.23,-47.273 1025.62,-36.5712 1022.22,-42.3756 1021.21,-37.4781 1021.21,-37.4781 1021.21,-37.4781 1022.22,-42.3756 1016.81,-38.3851 1023.23,-47.273 1023.23,-47.273"/>
</g>
<!-- WebMidia -->
<g id="node16" class="node"><title>WebMidia</title>
<ellipse fill="none" stroke="black" cx="2092" cy="-269" rx="58.1882" ry="18.3848"/>
<text text-anchor="middle" x="2092" y="-265.4" font-family="Times Roman,serif" font-size="14.00">WebMidia</text>
</g>
<!-- Street -->
<g id="node17" class="node"><title>Street</title>
<ellipse fill="none" stroke="black" cx="2210" cy="-269" rx="41.9273" ry="18.3848"/>
<text text-anchor="middle" x="2210" y="-265.4" font-family="Times Roman,serif" font-size="14.00">Street</text>
</g>
<!-- Company -->
<g id="node19" class="node"><title>Company</title>
<ellipse fill="none" stroke="black" cx="2327" cy="-269" rx="56.7776" ry="18.3848"/>
<text text-anchor="middle" x="2327" y="-265.4" font-family="Times Roman,serif" font-size="14.00">Company</text>
</g>
<!-- TypeWebMidia -->
<g id="node21" class="node"><title>TypeWebMidia</title>
<ellipse fill="none" stroke="black" cx="2483" cy="-269" rx="80.8184" ry="18.3848"/>
<text text-anchor="middle" x="2483" y="-265.4" font-family="Times Roman,serif" font-size="14.00">TypeWebMidia</text>
</g>
<!-- Email -->
<g id="node22" class="node"><title>Email</title>
<ellipse fill="none" stroke="black" cx="2620" cy="-269" rx="38.1838" ry="18.3848"/>
<text text-anchor="middle" x="2620" y="-265.4" font-family="Times Roman,serif" font-size="14.00">Email</text>
</g>
</g>
</svg>
